<?xml version="1.0" encoding="utf-8"?>
<!-- Generator: Adobe Illustrator 24.1.0, SVG Export Plug-In . SVG Version: 6.00 Build 0)  -->
<svg version="1.1" id="Layer_1" xmlns="http://www.w3.org/2000/svg" xmlns:xlink="http://www.w3.org/1999/xlink" x="0px" y="0px"
	 viewBox="0 0 512 512" style="enable-background:new 0 0 512 512;" xml:space="preserve">
<style type="text/css">
	.st0{fill:#2E2F30;}
	.st1{fill:#CC3434;}
	.st2{fill:#F5FEFF;}
	.st3{fill:#DB9C00;}
	.st4{fill:#9B5C8F;}
	.st5{fill:#FFFFFF;}
</style>
<g>
	<path class="st0" d="M130.1,339.4v39.9c0,16.6,13.1,28.2,29.2,28.2h243.5c16.1,0,29.2-11.7,29.2-28.2v-39.9H130.1z"/>
	<path class="st1" d="M402.8,203H159.3c-16.1,0-29.2,11.7-29.2,28.2v39.9h301.9v-39.9C432.1,214.7,418.9,203,402.8,203z"/>
	<rect x="130.1" y="271.2" class="st2" width="301.9" height="68.2"/>
	<path d="M432.1,378.8c0.5,17.5-13.1,28.7-29.2,28.7H159.3c-16.1,0-29.2-12.7-29.2-29.2"/>
	<g>
		<path class="st3" d="M305.4,329.1c-0.5-6.8-0.5-13.6-1-20.5c0-2.9,0-5.8-0.5-8.8c-0.5-4.9,0-9.7-1-14.1c-1-1-2.4-1.9-3.9-1.5
			c-3.9,0.5-7.3,4.4-11.2,3.9c-1-1.5-1.9-3.4-2.4-6.3c0-1.5,0-2.4,0-3.9c0-2.4-0.5-4.4-1.9-5.4c-1-0.5-2.9-1-4.4-1
			c-0.5,0-1,0.5-1.5,1c-1.9-1-4.9-1.5-4.4,1.5c1.9-1,3.9,1.5,3.9,3.4c0.5,3.9-1,8.8-2.9,10.2c-4.4,0-7.3-3.4-11.2-3.9
			c-3.4-0.5-4.4,1.9-4.4,5.4c0,2.9,0,6.3-0.5,9.3c0,2.9,0,5.8-0.5,8.8c0,1.5,0,3.4,0,4.9c-0.5,2.9,0,6.8-0.5,9.7
			c0,2.4,0,4.9-0.5,6.8c1.5-0.5,3.9,0,5.8,0c0,0.5,0.5,0.5,0.5,1.5c-1.5,0.5-1.5,1.5-2.9,1.9c1,0.5,1,2.4,1.9,2.9c0,1,0,1.5,0.5,1.5
			c1,0.5,3.9,1,5.4,1.5c8.8,1,21.9,1,30.2-0.5c1.9-0.5,2.9-0.5,2.9-2.4c1-0.5,1-1.9,1.9-2.9c-1-0.5-1.5-1-1.9-1.5
			c-0.5-0.5-0.5,0-1-0.5c0-0.5,0-1,0.5-1C301.5,329.1,304,328.7,305.4,329.1z M264.5,328.2c-0.5,0.5-1,0.5-1.5,1
			c-0.5-1,0.5-1.9,1.5-1.9C264.5,327.2,264.5,327.7,264.5,328.2z M289.4,330.1c-1.9,0-3.9,0.5-5.8,0c-0.5-0.5-0.5-1.5,0-1.9
			c1.9,0,3.9,0,5.8,0c2.4-0.5,5.4-1,7.3-1.5c0.5,0,0.5,1,0.5,1.5c-1.5,1-3.9,1-5.8,1.5C291.3,327.7,289.4,328.2,289.4,330.1z
			 M291.3,330.1c-0.5,0.5-0.5,0.5-1,1c-0.5-0.5-1-0.5-1-0.5C289.4,328.7,291.3,328.2,291.3,330.1z M277.7,313.1c0.5,0.5,1,1,1.5,1
			c0,1-0.5,1.9-0.5,2.9C278.2,316,276.2,314,277.7,313.1z M275.2,315.5c-0.5-1.9-0.5-3.9-0.5-5.8c1,1,1.9,1.9,2.9,2.9
			C277.2,313.6,276.2,314.5,275.2,315.5z M279.1,326.7c0.5-2.4,0.5-5.4,1-7.8c0.5,1.9-0.5,5.4-0.5,7.3c0,1,1,1,1,1.9
			c0.5-0.5,1-1,1.5-1.5c0-2.4-0.5-5.4-0.5-7.8c0.5,2.4,1,4.9,1,7.3c0.5,0.5,1,0.5,1,1c0.5,0,0.5-0.5,1-0.5c0.5,0.5,0,1,0.5,1.5
			c-0.5,0-1.5,0-1.9,0c-0.5,0-0.5,0.5-1,0.5c-1,0-1.9,0-2.9,0c-0.5-1-1.9-0.5-2.9-0.5c0-0.5,0-1,0.5-1c0-0.5,0.5,0.5,1,0.5
			C278.2,327.2,278.7,327.2,279.1,326.7z M286.9,315.5c-1-0.5-1.5-1.9-2.4-2.9c1-1,1.9-1.9,2.9-2.9l0,0
			C287.4,311.6,286.9,313.6,286.9,315.5z M288.9,306.7C288.9,306.7,288.9,307.2,288.9,306.7c0.5,2.4,2.4,4.9,1,7.3
			c-1-0.5-1.5-1.9-2.4-2.4C287.4,309.7,287.9,308.2,288.9,306.7z M285,314c-0.5,1-1,2.4-1.5,3.4c-0.5-1-0.5-1.9-1-2.9
			c0.5-0.5,1-0.5,1.5-1.5C284.5,313.1,285,313.6,285,314z M280.1,331.6c-0.5,0-1-0.5-1.5-1c0-0.5,0.5-0.5,0.5-1.5
			C280.1,329.1,280.6,330.6,280.1,331.6z M280.1,329.1c0.5,0,1.5,0,1.9,0c-0.5,0.5-0.5,1.5-1.5,1
			C280.6,329.6,280.1,329.6,280.1,329.1z M282.6,329.1c0.5,0,0.5,1,1,1.5c0,0.5-1,0.5-1,1C281.6,331.1,282.1,329.6,282.6,329.1z
			 M288.4,326.7c0.5,0,1,1,1,1.5c-0.5,0-1,0-1.5,0C287.9,327.7,288.4,327.2,288.4,326.7z M290.8,327.7c0-1,0.5-1.5,1-1.9
			c0.5,0.5,1,1,1,1.5C292.3,327.2,291.3,327.7,290.8,327.7z M293.3,327.2c-0.5-0.5-1-1.5-1.9-2.4c-0.5,1-1,1.9-1,2.9h-0.5
			c-0.5-0.5-1-1.5-1-1.9c-0.5,0.5-0.5,1.5-1,2.4c-0.5,0-1,0-1.5,0c-1-1.5-0.5-3.4,0-5.4c1,0.5,1.5,1.5,1.9,2.4c0.5-1,0.5-1.9,1-2.9
			c1,0.5,1.5,1.5,1.9,2.4c0.5-1,1-2.4,1.5-3.4c0,0,0,0,0.5,0c0.5,1.9,1,3.9,1.5,5.8C294.2,327.2,293.8,327.2,293.3,327.2z
			 M291.3,323.8c-1-0.5-1-1.5-1.9-2.4c-0.5,1-0.5,1.9-1,2.9c-1-0.5-1.5-1.9-2.4-2.4c-0.5,1-0.5,1.9-0.5,2.9c-0.5-1.5-1-3.4-1.5-5.4
			c0.5,0,1.5,1.5,1.9,1.9c0.5-1.5,0.5-2.9,1-3.9c1,0.5,1,1.5,1.5,1.9c0.5-1,1-1.9,1.5-2.9c1,0.5,1.5,1.5,2.4,1.9
			C293.3,320.9,291.8,322.3,291.3,323.8z M289.9,316.5c-0.5,1-0.5,1.5-1,2.4c-1-0.5-1-1.5-1.5-1.9c-0.5,1-1,2.9-1,4.4
			c-1-1-2.4-1.5-2.4-2.9c0-0.5,0.5-1.5,0.5-1.9c0.5-0.5,0.5-1,1-1.9c0.5,0.5,1,1.5,1.9,1.9c0-1.5,0-2.9,0.5-4.4
			c1,0.5,1.5,1.5,2.4,2.4c0.5-0.5,0.5-1,0.5-1.5c1,1.5,1.5,3.9,1.5,5.4C291.3,317.9,290.8,317,289.9,316.5z M290.8,309.2
			c0-2.9-0.5-5.8,0-8.3c0,0,0,0,0.5,0c0,4.9,0.5,9.7,0.5,14.6C290.8,313.6,290.8,311.1,290.8,309.2z M281.1,315
			c-6.3-3.9-10.2-10.7-10.2-20.9c4.4,0,7.8-1,10.2-2.9c1,0.5,1.9,1,2.9,1.5c1.9,1,4.4,1.5,7.3,1.5
			C291.3,304.3,287.4,311.1,281.1,315z M274.8,311.6c-0.5,1-1.5,1.9-2.4,2.4c-1.9-1.9,0.5-4.9,0.5-7.3
			C274.3,307.7,274.8,309.7,274.8,311.6z M270.9,300.9L270.9,300.9c1,1,0.5,3.4,0.5,5.4c0,3.4,0,6.3-1,8.8
			C270.4,310.6,270.9,305.3,270.9,300.9z M271.8,313.1c0,0.5,0.5,1,0.5,1.5c1-1,1.5-1.5,2.4-2.4c0.5,1,0.5,2.9,0.5,4.4
			c0.5-0.5,1-1.5,1.9-1.9c0.5,1.5,1,2.4,1.5,3.9c-0.5,1.5-1.5,1.9-2.4,2.9c-0.5-1.5-1-2.9-1.5-4.4c-1,0.5-0.5,1.9-1.5,1.9
			c-0.5-1-0.5-1.5-1-2.4c-1,0.5-1.5,1.5-2.4,1.9c0-0.5,0.5-1,0.5-1.5C270.9,315.5,270.9,314,271.8,313.1z M271.8,317
			c0.5,0.5,1,1.9,1.5,2.9c0.5-0.5,0.5-1.5,1.5-1.9c0.5,1.5,1,2.9,1.5,3.9c0.5-0.5,1.5-1.5,1.9-1.9c-0.5,1.5-1,3.4-1,4.9
			c-0.5-0.5-0.5-1.9-0.5-2.9c-1,0.5-1.5,1.9-2.4,2.4c-0.5-1-1-1.9-1-2.9c-1,0.5-1,1.5-1.9,2.4c-0.5-1.5-1.9-2.9-1.5-4.9
			C270.9,318.4,271.4,317.4,271.8,317z M270.9,324.3c0.5-1,1-1.5,1.9-2.4c0.5,1,1,1.9,1,2.9c1-0.5,1.5-1.9,1.9-2.4
			c0.5,1.5,1,3.9,0,5.4c-0.5,0-1,0-1.5,0c-0.5-0.5-0.5-1.5-1-2.4c-0.5,0.5-1,1.5-1.5,1.9h-0.5c-0.5-1-1-1.9-1-2.9
			c-0.5,0.5-1,1.5-1.5,1.9c-0.5,0-1,0-1.5-0.5c0.5-1.9,1-3.9,1.9-6.3C269.9,321.3,270.4,323.3,270.9,324.3z M274.3,328.2
			c-0.5,0-1,0-1.5,0c0-0.5,0.5-1,0.5-1.5C273.8,326.7,273.8,327.7,274.3,328.2z M271.4,327.7c-1,0-1.5-0.5-1.9-0.5c0-1,1-1,1-1.9
			C270.9,326.2,271.4,326.7,271.4,327.7z M271.4,328.2c2.9,0.5,4.9,0.5,7.3,0.5c0.5,0.5,0,1,0,1.9c-1.9,0.5-3.9,0-5.8,0
			c0-1.9-1.5-2.4-1.5-0.5c-1.9-0.5-4.9-0.5-4.9-1.5c0-0.5,0-1,0-1.5s-0.5-0.5,0.5-0.5C268.4,327.2,269.4,327.7,271.4,328.2z
			 M272.3,330.1c-0.5,0-0.5,0.5-0.5,0.5c-1,0-1-2.4,0.5-1.9C272.3,329.1,272.3,329.6,272.3,330.1z M297.6,327.2c1,0,1.5,1,1.5,1.9
			c-0.5,0-1-0.5-1.5-0.5C297.6,328.2,297.6,327.2,297.6,327.2z M294.7,326.7c-1-3.4-1.9-6.3-2.9-9.7c1,0.5,1.5,1.5,1.9,1.9
			c0-8.3-1-17-1-25.8c-1,0.5-1.9,1-3.9,1c-3.4,0-6.3-1.5-8.3-2.9c-1.5,1-3.9,2.4-6.3,2.9c-2.4,0.5-4.4,0.5-5.8-1
			c-0.5,8.8-1,17-1,25.8c1-0.5,1.5-1.5,2.4-1.9c-1,3.4-1.9,7.3-2.9,10.2c-1.9-0.5-4.4-1.9-4.9,1.5c-1.5,0-2.4,0-3.9,0
			c0.5,0,0.5-1,1.5-1.9c0.5-13.1,1-25.8,1.5-39.4c-1,0-1.9,0.5-2.4,1c0-1.9,1-3.9,2.9-3.9c4.4-0.5,7.8,3.9,12.2,3.9
			c0,0.5-0.5,0.5-1,1c1,0,2.4,0,2.9-0.5c0,0.5-0.5,1-1,1.5c1.9,0,3.4-1,3.9-1.9c0.5,0.5,1,1,1.5,1.5c0.5-0.5,1-1,1.5-1.5
			c1,1,2.4,1.9,4.4,1.9c0-0.5-1-1-1-1.5c1,0.5,2.4,0.5,2.9,0.5c0-0.5-1-0.5-1-1c4.9,0,7.3-4.4,12.2-3.9c1.9,0,2.9,1.5,2.9,3.9
			c-1-0.5-1.5-1-2.4-1c0.5,10.7,1,23.9,1.5,34.6c0,1.5-0.5,3.4,0,4.4s1.9,1.5,2.4,2.4c-1.5,0-3.4,0-4.9,0
			C299.6,326.7,297.2,326.2,294.7,326.7z"/>
		<path class="st3" d="M262.1,287.7c-0.5,12.7-1,25.3-1.5,37.5c1-0.5,1.9-1.9,2.9-2.4c0.5-11.7,1-21.4,1.5-32.6
			C264,289.2,263.1,288.2,262.1,287.7z"/>
		<path class="st3" d="M300.1,287.7c-0.5,1-2.4,1.5-2.9,2.4c0,1,0,3.4,0,4.4c1,8.8,0.5,18.5,1,27.8c0.5,0.5,1,1,1.5,1.5
			c0.5,0.5,1,1.5,1.5,1C301.1,313.1,300.6,298.9,300.1,287.7z"/>
		<path class="st3" d="M264.5,321.8c0.5-1,1.9-1.5,2.4-2.4c0.5-1,0-2.4,0-3.9c0.5-7.3,1-16.1,1-22.9c-1-0.5-1.5-1.5-2.4-1.9
			C265.5,300.9,265,311.6,264.5,321.8z"/>
		<path class="st3" d="M294.2,292.6c0.5,8.8,0.5,18,1,26.8c0.5,0.5,1.5,1.5,1.9,1.9l0.5,0.5c-0.5-10.2-1-21.4-1.5-30.7
			C295.7,291.6,294.7,292.1,294.2,292.6z"/>
		<path class="st3" d="M271.4,294.6c0.5,9.3,3.9,15.6,9.7,19.5c5.8-3.9,9.3-10.2,9.3-19.5c-3.9,0-7.3-1-9.3-2.9
			C279.1,293.6,275.2,294.6,271.4,294.6z"/>
		<g>
			<path class="st3" d="M265.5,327.7c0.5,0,1,0.5,1.5,0.5C267,327.2,266,327.2,265.5,327.7C265.5,327.2,265.5,327.7,265.5,327.7z"/>
			<path class="st3" d="M295.2,328.2c0.5,0,1-0.5,1.5-0.5C296.7,327.2,295.2,327.2,295.2,328.2z"/>
			<path class="st3" d="M269.9,328.7c-0.5-0.5-1-0.5-1.9-0.5C268.4,328.7,269.4,328.7,269.9,328.7z"/>
			<path class="st3" d="M292.3,328.7c0.5,0,1.9,0,1.9-0.5C293.3,328.2,292.3,328.7,292.3,328.7z"/>
			<path class="st3" d="M286.9,329.6c0.5,0,1.5,0,1.9,0C288.9,328.7,287.4,328.7,286.9,329.6z"/>
			<path class="st3" d="M275.2,329.1c-0.5,0-1.9-0.5-1.9,0.5C273.8,329.1,275.2,329.6,275.2,329.1z"/>
			<path class="st3" d="M278.2,329.1c-0.5,0-1.9,0-1.9,0.5C276.7,329.6,277.7,329.6,278.2,329.1z"/>
			<path class="st3" d="M284,329.6c0.5,0,1,0,1.9,0.5C286,329.1,284.5,329.1,284,329.6z"/>
		</g>
		<g>
			<path class="st2" d="M298.6,333c-1.5,0-1-2.4-1.9-2.9c-0.5,0-1,0-1.5,0.5c1.5-1,1.9,1.5,1.9,2.9c-0.5,0-0.5-0.5-1-0.5
				c-1,0-1,1-1.9,1c0-0.5-0.5-0.5-1.5-0.5c-0.5-0.5,0-1.5-0.5-1.5c0,0.5,0.5,1,0.5,1.5c-0.5,0.5-0.5,0.5-0.5,1c0,0-0.5,0-1,0
				c0-0.5,0-1-0.5-1c0,0.5-1,0.5-0.5,1c0,0,0.5,0,1,0.5c0,0.5-0.5,0.5-0.5,1c0.5,0,0.5-0.5,1-1c1,0,1.9-0.5,2.4,0c0.5,0,0.5-1,1-1
				c1,1,1.9-0.5,2.4-0.5c0.5,0,1,0,1.5,0V333C298.6,332.5,299.1,333,298.6,333z M290.3,334.5c0-0.5,0-0.5,0.5-0.5c0,0.5,0,0.5,0,0.5
				S290.8,335,290.3,334.5z M292.8,334.5c0-0.5,0-0.5,0-1C293.3,333.5,293.3,334,292.8,334.5L292.8,334.5z M294.2,334h-0.5
				C292.8,333.5,294.2,333,294.2,334z M293.8,334.5c0-0.5,0.5-0.5,0.5-0.5C294.2,334.5,293.8,335,293.8,334.5z M295.2,334
				c0-1,1-1,1.5-0.5C296.7,334,295.7,334,295.2,334z"/>
			<path class="st2" d="M266,331.1C266,330.6,266,330.6,266,331.1c-0.5-0.5-0.5-0.5-1-0.5c0,0.5,0,0,0,0.5
				C265.5,331.1,265.5,331.1,266,331.1z"/>
			<path class="st2" d="M265.5,331.6c0,0-0.5,0-1,0C265,332.1,265,332.1,265.5,331.6L265.5,331.6z"/>
			<path class="st2" d="M285,333v-0.5c0,0,0,0-0.5,0C284.5,332.5,284.5,333,285,333C284.5,333,285,333,285,333z"/>
			<path class="st2" d="M273.8,336c-0.5-0.5-0.5-1-1-1.5c1-0.5,0.5-1.9,0-1.9c-0.5,0-0.5,0.5-1,0.5c0,0.5,0.5,0.5,0.5,1
				c-0.5,0-1.5,0.5-1.9,0c0-0.5,0-1-0.5-1c0,0.5,0.5,1.5-0.5,1.9c0.5,0,0.5-0.5,1-0.5c0.5,0.5,1.5,0,1.9,0
				C273.3,335,273.3,336.4,273.8,336c1,0,1-2.4,0.5-3.4C274.3,333.5,275.2,336,273.8,336z M271.8,334c0-1.5,1.9,0,0.5,0.5L271.8,334
				z"/>
			<path class="st2" d="M275.7,335.5c0-1,0.5-2.4,0-2.9C275.7,333,275.2,334.5,275.7,335.5z"/>
			<path class="st2" d="M287.4,333.5c-0.5,0.5,0.5,0.5,0,1c0,0.5-0.5,0.5-1,0.5c-1-0.5,0-2.4-0.5-2.9c0,0.5,0.5,1.5,0,2.4
				c-0.5,0-1,0-1,0.5c1,0,1.9,0,2.9,0C287.9,335,288.4,333.5,287.4,333.5z"/>
			<path class="st2" d="M285.5,333.5c0-0.5-0.5,0-0.5,0C284,333.5,285.5,334,285.5,333.5z"/>
			<path class="st2" d="M288.9,333.5c-0.5,0.5,0.5,1,0.5,1.5s-0.5,0.5-0.5,1C289.4,336,289.9,334,288.9,333.5z M289.4,335
				c-0.5,0-0.5-0.5-0.5-0.5C288.9,334,289.4,334.5,289.4,335z"/>
			<path class="st2" d="M297.6,334c0.5,0,1,0.5,1,0C298.1,334,297.6,333.5,297.6,334z"/>
			<path class="st2" d="M282.6,335.5h-0.5c0-0.5,0-1-0.5-1c-1,0.5-2.4,0-3.4-0.5c0,0.5,0.5,1-0.5,1.5c-0.5,0-0.5-1-1-1
				c-0.5,0.5,0.5,1,0.5,1c0,0.5-0.5,1-1,1.5c0.5,0,1-1,1.5-1.5c1.5,0,1.5,0,2.9,0c0,0.5,0.5,0.5,1,1c0.5,0,0.5-1,0.5-1
				c1,0,1.5,0,1.9-0.5C284,334,282.6,334.5,282.6,335.5z M281.1,336.4c-0.5,0-0.5-0.5-0.5-1c-0.5,0-1.5,0-1.9,0c0-1.9,1.9,0,2.9-1
				C282.1,335.5,281.6,336,281.1,336.4z M283,335.5c-0.5-0.5,0.5-1,0.5-0.5C283.5,335.5,283.5,335.5,283,335.5z"/>
			<path class="st2" d="M265.5,335.5V335c0,0,0-0.5-0.5,0C265,334.5,265,335,265.5,335.5z"/>
			<path class="st2" d="M266,335.5c0.5,0.5,1,0,1-0.5C266.5,334.5,266,335,266,335.5z"/>
			<path class="st2" d="M267.5,335.5h0.5l0,0C267.9,334.5,267,335,267.5,335.5z"/>
			<path class="st2" d="M286,336c-0.5,0-0.5,1,0,1V336z"/>
			<path class="st2" d="M286.4,336.4c0,0.5,0.5,0.5,0.5,0.5C287.9,336.4,286.4,335.5,286.4,336.4z"/>
			<path class="st2" d="M268.9,333c1,1.5-1,1.9-1.5,1c0-0.5,0.5-0.5,0.5-1c-0.5,0-0.5,1-0.5,1c-1.9,0-0.5-2.4-0.5-3.4c0,0,0,0-0.5,0
				c0,1-0.5,1.9-1.5,2.4c0,1,1,1,1.9,1.5c0.5,0.5,1.5,0.5,1.9,0.5C268.9,334,269.9,333,268.9,333z"/>
		</g>
	</g>
</g>
<g>
	<path class="st4" d="M101.8,103.7h236.9c15,0,27.1,12.1,27.1,27.1v90.4c0,15-12.1,27.1-27.1,27.1h-85l11.7,28.6l-51.3-28.6H101.9
		c-15,0-27.1-12.1-27.1-27.1v-90.4C74.7,116,86.8,103.7,101.8,103.7z"/>
	<path class="st5" d="M91.4,128.5c1.7-2.2,4.1-3.4,7.5-3.7c6-0.5,9.5,2.4,10.3,8.5c3.7,24.7,7.7,45.7,11.9,62.8l25.9-49.3
		c2.4-4.5,5.3-6.9,8.9-7.1c5.2-0.4,8.4,3,9.7,9.9c3,15.7,6.7,29.1,11.2,40.5c3.1-30.1,8.3-51.7,15.6-65.1c1.8-3.3,4.4-5,7.8-5.2
		c2.7-0.2,5.2,0.6,7.5,2.4c2.2,1.8,3.4,4,3.7,6.7c0.1,2.1-0.2,3.9-1.2,5.7c-4.6,8.5-8.4,22.8-11.5,42.7c-3,19.3-4,34.3-3.3,45.1
		c0.2,3-0.2,5.6-1.4,7.8c-1.4,2.6-3.5,4-6.3,4.3c-3.1,0.2-6.3-1.2-9.3-4.4c-11-11.2-19.8-28-26.1-50.4c-7.7,15.1-13.4,26.5-17,34.1
		c-7,13.4-12.9,20.2-17.9,20.6c-3.2,0.2-5.9-2.5-8.3-8.2c-6-15.5-12.5-45.4-19.5-89.8C89,133.3,89.7,130.6,91.4,128.5L91.4,128.5z
		 M345.6,147c-4.3-7.5-10.5-11.9-18.9-13.7c-2.2-0.5-4.4-0.7-6.4-0.7c-11.4,0-20.6,5.9-27.8,17.7c-6.2,10.1-9.2,21.2-9.2,33.4
		c0,9.1,1.9,16.9,5.7,23.4c4.3,7.5,10.5,11.9,18.9,13.7c2.2,0.5,4.4,0.7,6.4,0.7c11.5,0,20.7-5.9,27.8-17.7
		c6.2-10.2,9.2-21.3,9.2-33.5C351.4,161.1,349.4,153.4,345.6,147L345.6,147z M330.7,179.8c-1.7,7.8-4.6,13.6-9,17.5
		c-3.4,3.1-6.6,4.4-9.6,3.8c-2.8-0.6-5.2-3.1-7-7.7c-1.4-3.7-2.1-7.3-2.1-10.8c0-3,0.2-5.9,0.8-8.6c1.1-4.9,3.1-9.6,6.3-14.1
		c3.9-5.8,8-8.2,12.3-7.3c2.8,0.6,5.2,3.1,7,7.7c1.4,3.7,2.1,7.3,2.1,10.8C331.6,174.1,331.3,177.1,330.7,179.8L330.7,179.8z
		 M271.6,147c-4.3-7.5-10.6-11.9-18.9-13.7c-2.2-0.5-4.4-0.7-6.4-0.7c-11.4,0-20.6,5.9-27.8,17.7c-6.2,10.1-9.2,21.2-9.2,33.4
		c0,9.1,1.9,16.9,5.7,23.4c4.3,7.5,10.5,11.9,18.9,13.7c2.2,0.5,4.4,0.7,6.4,0.7c11.5,0,20.7-5.9,27.8-17.7
		c6.2-10.2,9.2-21.3,9.2-33.5C277.2,161.1,275.4,153.4,271.6,147L271.6,147z M256.5,179.8c-1.7,7.8-4.6,13.6-9,17.5
		c-3.4,3.1-6.6,4.4-9.6,3.8c-2.8-0.6-5.2-3.1-7-7.7c-1.4-3.7-2.1-7.3-2.1-10.8c0-3,0.2-5.9,0.8-8.6c1.1-4.9,3.1-9.6,6.3-14.1
		c3.9-5.8,8-8.2,12.3-7.3c2.8,0.6,5.2,3.1,7,7.7c1.4,3.7,2.1,7.3,2.1,10.8C257.5,174.1,257.1,177.1,256.5,179.8L256.5,179.8z"/>
</g>
</svg>
